<svg xmlns="http://www.w3.org/2000/svg" width="1185.48387" height="273.30918" viewBox="0 0 1185.48387 273.30918">
  <defs>
    <style>
      .a {
        fill: #f75d34;
      }

      .b {
        fill: #24272c;
      }
    </style>
  </defs>
  <title>cardekho-logo-freelogovectors.net</title>
  <g>
    <path class="a" d="M324.74079,399.98051A138.834,138.834,0,0,1,210.10461,536.65459l-15.056-85.42131a52.04818,52.04818,0,0,0,0-102.50557l15.056-85.3823a138.803,138.803,0,0,1,114.63618,136.6741M176.95024,451.2723a52.04817,52.04817,0,0,1,0-102.50556l-15.056-85.42131a138.76914,138.76914,0,0,0,0,273.30916l15.056-85.42131" transform="translate(-47.25806 -263.34541)"/>
    <path class="b" d="M359.45539,363.6667c0-39.20019,29.13686-69.27317,69.27318-69.27317,24.18319,0,45.48,12.01359,57.10356,30.85309l-26.25049,15.212c-5.88979-10.25836-17.31831-16.38217-30.81409-16.38217-23.59813,0-38.84914,15.79709-38.84914,39.59024s15.251,39.59024,38.84917,39.59024c13.49578,0,25.11934-6.08481,30.81409-16.38217l26.25049,15.212c-11.42852,18.83949-32.72533,30.81409-57.10356,30.81409-40.17533,0-69.27318-30.073-69.27318-69.27318m238.00949-34.55858V433.1349H567.977V420.96529c-6.51386,7.489-16.14814,12.0136-29.3319,12.0136-25.78242,0-47.04022-22.623-47.04022-51.95488s21.2578-51.91588,47.04022-51.91588c13.18376,0,22.818,4.5246,29.3319,12.01359V329.10813h29.48789ZM567.977,380.985c0-14.744-9.82932-23.98818-23.4031-23.98818s-23.4031,9.24423-23.4031,23.98818,9.82929,23.98818,23.4031,23.98818S567.977,395.729,567.977,380.985m100.59429-51.91589v33.73946c-12.32565-1.98926-29.761,2.9644-29.761,22.623V433.1349h-29.761V329.06912h29.761v19.65861c3.9395-13.30076,17.24028-19.65861,29.761-19.65861M981.62673,433.1349l-30.463-42.04756V433.1349H922.6119V294.39353h28.55181v76.37211l28.55181-41.69652h33.31038L978.3893,379.5028l35.57269,53.6321Zm135.26994-64.67056V433.1349h-28.55181v-60.458c0-11.81856-7.41095-17.31829-16.53815-17.31829-10.4924,0-17.70838,6.0848-17.70838,19.6196v58.1957h-28.5518V294.39353h28.5518v46.29913c5.10967-7.05994,14.62694-11.62354,27.22565-11.62354,19.22952,0,35.57269,13.69081,35.57269,39.39522m11.5455,12.75469c0-29.29288,23.20812-51.91587,52.14988-51.91587s52.14989,22.623,52.14989,51.91587-23.20812,51.95488-52.14989,51.95488-52.14988-22.623-52.14988-51.95488m74.773,0c0-13.96384-9.82926-23.20807-22.623-23.20807s-22.62295,9.24422-22.62295,23.20807,9.82926,23.20808,22.62295,23.20808,22.623-9.24422,22.623-23.20808M799.90169,363.54968c0,39.2392-29.13686,69.35118-67.4399,69.35118H680.07788V294.1595h52.38391c38.26405,0,67.44,30.112,67.44,69.39018m-29.52694,0c0-23.79315-15.056-39.43422-36.93789-39.43422H709.64374v78.90745h23.79318c21.76489,0,36.93789-15.64107,36.93789-39.43423m93.14429,43.02271a27.92676,27.92676,0,0,0,14.978-4.13455s9.20522,3.43245,27.61566,10.25836c-9.63428,13.41777-24.22223,20.32169-42.9837,20.32169-33.66148,0-54.56825-22.662-54.56825-52.03289s21.29685-52.03289,52.423-52.03289c28.78583,0,50.08262,22.27194,50.08262,52.03289a58.22327,58.22327,0,0,1-1.17017,11.85757H839.95989c3.58847,10.21935,12.63769,13.72982,23.52011,13.72982m18.09839-35.88475c-3.12042-11.38951-12.05258-15.56306-20.90677-15.56306-11.19446,0-18.76147,5.53873-21.49182,15.56306ZM591.26311,480.7602a11.01713,11.01713,0,0,1,4.52461,3.90051,10.201,10.201,0,0,1,1.67719,5.85078,11.2443,11.2443,0,0,1-3.47145,8.3471,11.64681,11.64681,0,0,1-8.5031,3.35445H567.626V460.82856h16.57719a11.51874,11.51874,0,0,1,8.23009,3.23743,10.6022,10.6022,0,0,1,3.35445,8.03507,9.88883,9.88883,0,0,1-4.48557,8.62014Zm-7.099-14.783H573.08669v12.63768h11.07745a5.88955,5.88955,0,0,0,4.36856-1.83325,6.2754,6.2754,0,0,0,1.79426-4.4856,6.02915,6.02915,0,0,0-1.79426-4.44659,5.96723,5.96723,0,0,0-4.32958-1.87224Zm1.28718,31.08712a6.2679,6.2679,0,0,0,4.6806-1.95026,6.6523,6.6523,0,0,0,1.91128-4.79763,6.47174,6.47174,0,0,0-1.91128-4.71962,6.36817,6.36817,0,0,0-4.64162-1.95026H573.12567v13.41777h12.32565ZM628.123,472.64713h5.14871v29.56592H628.123v-5.07067a12.56086,12.56086,0,0,1-11.19447,5.85078,14.16,14.16,0,0,1-10.57042-4.5246,16.13027,16.13027,0,0,1,0-22.07694,14.07842,14.07842,0,0,1,10.57042-4.52459A12.60476,12.60476,0,0,1,628.123,477.7178Zm-10.53139,25.35336a10.32914,10.32914,0,0,0,10.53139-10.5704,10.388,10.388,0,0,0-3.00342-7.528,10.143,10.143,0,0,0-7.528-3.04239,10.02917,10.02917,0,0,0-7.45,3.04239,10.23312,10.23312,0,0,0-3.00341,7.528,10.388,10.388,0,0,0,3.00341,7.528A10.09043,10.09043,0,0,0,617.59159,498.00049Zm47.93732-37.17193h5.14871V502.213h-5.14871v-5.07067a12.56082,12.56082,0,0,1-11.19446,5.85077,14.16,14.16,0,0,1-10.57043-4.52459,16.13029,16.13029,0,0,1,0-22.07693,14.07844,14.07844,0,0,1,10.57043-4.52459,12.60473,12.60473,0,0,1,11.19446,5.85077V460.82856Zm-10.53138,37.21093a10.32913,10.32913,0,0,0,10.53138-10.5704,10.388,10.388,0,0,0-3.00341-7.528,10.143,10.143,0,0,0-7.528-3.04239,10.02917,10.02917,0,0,0-7.45,3.04239,10.23306,10.23306,0,0,0-3.00341,7.528,10.388,10.388,0,0,0,3.00341,7.528A10.09043,10.09043,0,0,0,654.99753,498.03949ZM693.2226,471.906a11.045,11.045,0,0,1,8.34711,3.27644c2.10625,2.18429,3.12042,5.14868,3.12042,8.89317V502.213h-5.14871V484.34868a7.642,7.642,0,0,0-1.95026-5.57774,7.15309,7.15309,0,0,0-5.38273-1.98926,8.40845,8.40845,0,0,0-6.20181,2.37932c-1.59922,1.59921-2.37931,4.05654-2.37931,7.372v15.68007H678.4786V460.82856h5.14871v16.07012c2.10625-3.35445,5.26572-5.03167,9.59529-5.03167Zm34.71457,5.73377h-7.87906v16.03112a4.52442,4.52442,0,0,0,.85812,3.12041,3.39467,3.39467,0,0,0,2.61334.93613c1.17017,0,2.65232,0,4.36856-.078v4.60261c-4.48557.58509-7.801.234-9.8683-1.09214s-3.12043-3.8225-3.12043-7.489V477.6398h-5.85077v-4.95367h5.85077v-6.74789l5.14871-1.5212v8.26909h7.87906Zm8.2301,12.16961a9.78069,9.78069,0,0,0,3.62745,6.16282,11.12548,11.12548,0,0,0,7.05992,2.18429c3.90052,0,6.74788-1.44318,8.5031-4.32957l4.36856,2.49633c-2.8864,4.44658-7.216,6.66987-13.02771,6.66987a15.4928,15.4928,0,0,1-11.42849-4.40758,16.378,16.378,0,0,1-.078-22.272,14.8951,14.8951,0,0,1,11.19446-4.44658,13.51885,13.51885,0,0,1,10.60941,4.60261,15.99165,15.99165,0,0,1,4.09555,11.03845,15.71077,15.71077,0,0,1-.195,2.30131h-24.7292Zm10.21933-13.06673a10.17657,10.17657,0,0,0-6.86489,2.34031,9.96055,9.96055,0,0,0-3.35444,6.24082h19.7366a9.80835,9.80835,0,0,0-3.31546-6.39685A9.42046,9.42046,0,0,0,746.3866,476.74267Zm35.96277-15.91411h5.49974V502.213h-5.49974Zm28.5518,11.07746a11.045,11.045,0,0,1,8.34711,3.27644c2.10625,2.18429,3.12042,5.14868,3.12042,8.89317V502.213H817.22V484.34868a7.642,7.642,0,0,0-1.95026-5.57774,7.15307,7.15307,0,0,0-5.38273-1.98926,8.40841,8.40841,0,0,0-6.2018,2.37932c-1.59923,1.59921-2.37932,4.05654-2.37932,7.372v15.68007h-5.14871V472.64713h5.14871v4.25157c2.10625-3.35445,5.26572-5.03167,9.59529-5.03167Zm43.13971-11.07746h5.14871V502.213h-5.14871v-5.07067a12.56085,12.56085,0,0,1-11.19447,5.85077,14.16,14.16,0,0,1-10.57042-4.52459,16.13026,16.13026,0,0,1,0-22.07693,14.07842,14.07842,0,0,1,10.57042-4.52459,12.60476,12.60476,0,0,1,11.19447,5.85077V460.82856Zm-10.53139,37.21093a10.32914,10.32914,0,0,0,10.53139-10.5704,10.388,10.388,0,0,0-3.00342-7.528,10.143,10.143,0,0,0-7.528-3.04239,10.02917,10.02917,0,0,0-7.45,3.04239,10.2331,10.2331,0,0,0-3.00341,7.528,10.388,10.388,0,0,0,3.00341,7.528A10.09043,10.09043,0,0,0,843.50949,498.03949ZM869.604,467.26442a3.50922,3.50922,0,0,1-2.49633-1.01413,3.18512,3.18512,0,0,1-1.01411-2.41832,3.486,3.486,0,0,1,1.01411-2.45733,3.48366,3.48366,0,0,1,4.91463,0,3.48591,3.48591,0,0,1,1.01411,2.45733,3.46288,3.46288,0,0,1-3.43241,3.43245ZM866.99062,502.213V472.64713h5.14871v29.56592Zm37.4839-29.56591h5.14871v29.56592h-5.14871v-5.07067a12.56083,12.56083,0,0,1-11.19446,5.85078,14.16,14.16,0,0,1-10.57042-4.5246,16.13027,16.13027,0,0,1,0-22.07694,14.0784,14.0784,0,0,1,10.57042-4.52459,12.60473,12.60473,0,0,1,11.19446,5.85077Zm-10.53138,25.35336a10.32913,10.32913,0,0,0,10.53138-10.5704,10.388,10.388,0,0,0-3.00341-7.528,10.143,10.143,0,0,0-7.528-3.04239,10.02917,10.02917,0,0,0-7.45,3.04239,10.23312,10.23312,0,0,0-3.00341,7.528,10.388,10.388,0,0,0,3.00341,7.528A10.09043,10.09043,0,0,0,893.94314,498.00049Zm68.92212,4.21255h-6.74788L938.253,482.32041V502.213h-5.49974V460.82856H938.253V479.551l17.27926-18.72247h6.74788l-18.29344,20.12666L962.8652,502.252Zm26.17249-29.56591h5.14871v29.56592h-5.14871v-5.07067a12.56084,12.56084,0,0,1-11.19446,5.85078,14.16,14.16,0,0,1-10.57043-4.5246,16.13027,16.13027,0,0,1,0-22.07694,14.07844,14.07844,0,0,1,10.57043-4.52459,12.60476,12.60476,0,0,1,11.19446,5.85077Zm-10.53138,25.35336a10.32913,10.32913,0,0,0,10.53138-10.5704,10.388,10.388,0,0,0-3.00341-7.528,10.143,10.143,0,0,0-7.528-3.04239,10.02914,10.02914,0,0,0-7.45,3.04239,10.23309,10.23309,0,0,0-3.00342,7.528,10.388,10.388,0,0,0,3.00342,7.528A10.09041,10.09041,0,0,0,978.50637,498.00049Zm62.48629-17.24029a11.01751,11.01751,0,0,1,4.52461,3.90051,10.201,10.201,0,0,1,1.67719,5.85078,11.24391,11.24391,0,0,1-3.47151,8.3471,11.647,11.647,0,0,1-8.5031,3.35445h-17.86437V460.82856h16.57719a11.51864,11.51864,0,0,1,8.23009,3.23743,10.60236,10.60236,0,0,1,3.35439,8.03507,9.88885,9.88885,0,0,1-4.48557,8.62014Zm-7.099-14.783h-11.07745v12.63768h11.07745a5.88956,5.88956,0,0,0,4.36856-1.83325,6.27564,6.27564,0,0,0,1.7942-4.4856,6.02933,6.02933,0,0,0-1.7942-4.44659,5.96714,5.96714,0,0,0-4.32958-1.87224Zm1.28718,31.08712a6.268,6.268,0,0,0,4.6806-1.95026,6.65225,6.65225,0,0,0,1.91122-4.79763,6.47216,6.47216,0,0,0-1.91122-4.71962,6.36809,6.36809,0,0,0-4.64162-1.95026h-12.36463v13.41777h12.32565Zm32.68628-25.15834a11.0451,11.0451,0,0,1,8.34716,3.27644c2.10632,2.18429,3.12037,5.14868,3.12037,8.89317V502.213H1074.186V484.34868a7.64227,7.64227,0,0,0-1.95026-5.57774,7.15309,7.15309,0,0,0-5.38273-1.98926,8.40844,8.40844,0,0,0-6.20181,2.37932c-1.59922,1.59921-2.37926,4.05654-2.37926,7.372v15.68007h-5.14871V460.82856h5.14871v16.07012c2.10632-3.35445,5.26573-5.03167,9.59524-5.03167Zm43.1397.74111h5.14871v29.56592h-5.14871v-5.07067a12.56077,12.56077,0,0,1-11.19446,5.85078,14.15977,14.15977,0,0,1-10.57037-4.5246,16.13027,16.13027,0,0,1,0-22.07694,14.0784,14.0784,0,0,1,10.57037-4.52459,12.6048,12.6048,0,0,1,11.19446,5.85077Zm-10.53144,25.35336a10.329,10.329,0,0,0,10.53132-10.5704,10.3884,10.3884,0,0,0-3.00335-7.528,10.14282,10.14282,0,0,0-7.528-3.04239,10.02908,10.02908,0,0,0-7.45,3.04239,10.2333,10.2333,0,0,0-3.00335,7.528,10.38838,10.38838,0,0,0,3.00335,7.528A10.09033,10.09033,0,0,0,1100.47541,498.00049Zm28.6299-20.3607q2.51579-5.49972,9.2442-5.49973v5.38272a9.26074,9.26074,0,0,0-6.51391,2.02827c-1.83325,1.4822-2.73041,3.8225-2.73041,7.02092v15.68008h-5.14871V472.68613h5.14871v4.95366Zm37.60091,20.86775a15.54432,15.54432,0,1,1,0-22.11593,15.67879,15.67879,0,0,1,0,22.11593Zm-11.07745-.54607a10.26334,10.26334,0,0,0,10.45336-10.53139,10.325,10.325,0,0,0-3.00336-7.528,10.645,10.645,0,0,0-14.822,0,10.93624,10.93624,0,0,0,0,15.056A10.15759,10.15759,0,0,0,1155.62877,497.96147Zm25.50941-17.39629a3.00849,3.00849,0,0,0,1.75528,2.69135,19.39148,19.39148,0,0,0,4.13454,1.71622l4.8366,1.40419a8.333,8.333,0,0,1,4.13454,2.69135,7.50532,7.50532,0,0,1,1.67719,5.07067,7.73548,7.73548,0,0,1-3.12036,6.43585,12.63618,12.63618,0,0,1-7.95709,2.41832,13.70129,13.70129,0,0,1-7.411-1.91126,10.47523,10.47523,0,0,1-4.36856-5.03167l4.44665-2.53534a6.25114,6.25114,0,0,0,2.65232,3.35445,8.54691,8.54691,0,0,0,4.68067,1.24816,8.21214,8.21214,0,0,0,4.2125-.97513,3.31613,3.31613,0,0,0,1.63827-3.0424,3.09339,3.09339,0,0,0-1.71623-2.73036,16.9044,16.9044,0,0,0-4.13454-1.75524c-1.59923-.46806-3.23738-.97513-4.8366-1.44318a8.74606,8.74606,0,0,1-4.13454-2.61334,6.98227,6.98227,0,0,1-1.71624-4.83665,7.72321,7.72321,0,0,1,3.00336-6.31883,11.41256,11.41256,0,0,1,7.489-2.49633,12.53525,12.53525,0,0,1,6.43583,1.63821,10.4785,10.4785,0,0,1,4.2125,4.5246l-4.32951,2.41831c-1.0531-2.53534-3.15941-3.7835-6.31882-3.7835a6.88991,6.88991,0,0,0-3.74446,1.01413,3.23194,3.23194,0,0,0-1.52126,2.84737Zm46.29911-7.918h5.14871v29.56592h-5.14871v-5.07067a12.56077,12.56077,0,0,1-11.19446,5.85078,14.15977,14.15977,0,0,1-10.57037-4.5246,16.13027,16.13027,0,0,1,0-22.07694,14.0784,14.0784,0,0,1,10.57037-4.52459,12.60481,12.60481,0,0,1,11.19446,5.85077Zm-10.53144,25.35336a10.329,10.329,0,0,0,10.53132-10.5704,10.3884,10.3884,0,0,0-3.00335-7.528,10.14286,10.14286,0,0,0-7.528-3.04239,10.029,10.029,0,0,0-7.45,3.04239,10.23327,10.23327,0,0,0-3.00336,7.528,10.38839,10.38839,0,0,0,3.00336,7.528A10.09032,10.09032,0,0,0,1216.90585,498.00049Z" transform="translate(-47.25806 -263.34541)"/>
  </g>
</svg>
